<svg width="20" height="21" viewBox="0 0 20 21" fill="none" xmlns="http://www.w3.org/2000/svg">
<path id="Vector" d="M19.8345 4.35705C19.765 4.27381 19.678 4.20687 19.5797 4.16093C19.4814 4.115 19.3743 4.0912 19.2658 4.09122H4.32369L3.87076 1.60332C3.80872 1.26184 3.62881 0.952973 3.36238 0.730555C3.09595 0.508137 2.75992 0.386281 2.41286 0.38623H0.740992C0.544469 0.38623 0.355995 0.4643 0.217032 0.603264C0.0780686 0.742228 0 0.930703 0 1.12723C0 1.32375 0.0780686 1.51223 0.217032 1.65119C0.355995 1.79016 0.544469 1.86823 0.740992 1.86823H2.40823L4.7757 14.8625C4.84543 15.2479 5.01574 15.608 5.26938 15.9064C4.91931 16.2334 4.66663 16.651 4.53937 17.1128C4.41211 17.5746 4.41525 18.0626 4.54842 18.5228C4.6816 18.9829 4.93961 19.3972 5.29386 19.7197C5.6481 20.0421 6.08473 20.2602 6.55533 20.3496C7.02594 20.4391 7.51212 20.3964 7.95997 20.2265C8.40782 20.0565 8.79985 19.7658 9.09257 19.3866C9.38529 19.0074 9.56728 18.5545 9.61835 18.0782C9.66942 17.6019 9.58757 17.1208 9.38189 16.6882H13.5889C13.4231 17.0352 13.3373 17.4151 13.3379 17.7997C13.3379 18.3126 13.49 18.814 13.7749 19.2405C14.0599 19.667 14.465 19.9994 14.9389 20.1957C15.4128 20.392 15.9342 20.4434 16.4373 20.3433C16.9404 20.2433 17.4025 19.9963 17.7652 19.6335C18.1279 19.2708 18.3749 18.8087 18.475 18.3056C18.575 17.8025 18.5237 17.2811 18.3274 16.8072C18.1311 16.3333 17.7987 15.9282 17.3722 15.6433C16.9457 15.3583 16.4443 15.2062 15.9313 15.2062H6.96255C6.78902 15.2062 6.621 15.1452 6.48779 15.034C6.35457 14.9228 6.26462 14.7684 6.2336 14.5976L5.93998 12.9832H16.6844C17.205 12.9831 17.709 12.8003 18.1087 12.4667C18.5083 12.1331 18.7782 11.6698 18.8712 11.1576L19.9975 4.96467C20.0166 4.85763 20.0119 4.74771 19.9837 4.6427C19.9555 4.53769 19.9046 4.44017 19.8345 4.35705ZM8.15092 17.7997C8.15092 18.0195 8.08573 18.2344 7.9636 18.4172C7.84146 18.6 7.66787 18.7424 7.46478 18.8266C7.26168 18.9107 7.03819 18.9327 6.82259 18.8898C6.60698 18.8469 6.40893 18.7411 6.25349 18.5856C6.09804 18.4302 5.99218 18.2321 5.9493 18.0165C5.90641 17.8009 5.92842 17.5774 6.01255 17.3743C6.09667 17.1712 6.23913 16.9976 6.42192 16.8755C6.6047 16.7534 6.8196 16.6882 7.03943 16.6882C7.33421 16.6882 7.61692 16.8053 7.82537 17.0137C8.03381 17.2222 8.15092 17.5049 8.15092 17.7997ZM17.0428 17.7997C17.0428 18.0195 16.9776 18.2344 16.8555 18.4172C16.7334 18.6 16.5598 18.7424 16.3567 18.8266C16.1536 18.9107 15.9301 18.9327 15.7145 18.8898C15.4989 18.8469 15.3008 18.7411 15.1454 18.5856C14.9899 18.4302 14.8841 18.2321 14.8412 18.0165C14.7983 17.8009 14.8203 17.5774 14.9045 17.3743C14.9886 17.1712 15.131 16.9976 15.3138 16.8755C15.4966 16.7534 15.7115 16.6882 15.9313 16.6882C16.2261 16.6882 16.5088 16.8053 16.7173 17.0137C16.9257 17.2222 17.0428 17.5049 17.0428 17.7997ZM17.4133 10.8926C17.3822 11.0639 17.2919 11.2187 17.1581 11.3299C17.0243 11.4412 16.8556 11.5018 16.6816 11.5012H5.67044L4.59323 5.57321H18.3775L17.4133 10.8926Z" fill="#1F1F1F"/>
</svg>
