<svg width="23" height="23" viewBox="0 0 23 23" fill="none" xmlns="http://www.w3.org/2000/svg">
<path id="Vector" d="M11.5 0C9.22552 0 7.00211 0.674463 5.11095 1.9381C3.21978 3.20174 1.7458 4.99779 0.87539 7.09914C0.00498277 9.20049 -0.222756 11.5128 0.220974 13.7435C0.664704 15.9743 1.75997 18.0234 3.36828 19.6317C4.97658 21.24 7.02568 22.3353 9.25646 22.779C11.4872 23.2228 13.7995 22.995 15.9009 22.1246C18.0022 21.2542 19.7983 19.7802 21.0619 17.8891C22.3255 15.9979 23 13.7745 23 11.5C22.9968 8.451 21.7841 5.5278 19.6282 3.37183C17.4722 1.21586 14.549 0.0032198 11.5 0ZM11.5 21.2308C9.57544 21.2308 7.69409 20.6601 6.09388 19.5908C4.49366 18.5216 3.24644 17.0019 2.50995 15.2238C1.77345 13.4457 1.58075 11.4892 1.95621 9.60162C2.33167 7.71404 3.25844 5.98018 4.61931 4.61931C5.98018 3.25843 7.71404 2.33167 9.60162 1.9562C11.4892 1.58074 13.4457 1.77344 15.2238 2.50994C17.0019 3.24644 18.5216 4.49366 19.5908 6.09387C20.6601 7.69409 21.2308 9.57543 21.2308 11.5C21.2278 14.0799 20.2017 16.5532 18.3775 18.3775C16.5532 20.2017 14.0799 21.2278 11.5 21.2308ZM12.8269 11.5C12.8269 11.7624 12.7491 12.019 12.6033 12.2372C12.4575 12.4554 12.2503 12.6255 12.0078 12.7259C11.7653 12.8263 11.4985 12.8526 11.2411 12.8014C10.9837 12.7502 10.7473 12.6238 10.5617 12.4383C10.3762 12.2527 10.2498 12.0163 10.1986 11.7589C10.1474 11.5015 10.1737 11.2347 10.2741 10.9922C10.3745 10.7497 10.5446 10.5425 10.7628 10.3967C10.981 10.2509 11.2376 10.1731 11.5 10.1731C11.8519 10.1731 12.1894 10.3129 12.4383 10.5617C12.6871 10.8106 12.8269 11.1481 12.8269 11.5ZM17.6923 11.5C17.6923 11.7624 17.6145 12.019 17.4687 12.2372C17.3229 12.4554 17.1156 12.6255 16.8732 12.7259C16.6307 12.8263 16.3639 12.8526 16.1065 12.8014C15.8491 12.7502 15.6127 12.6238 15.4271 12.4383C15.2415 12.2527 15.1152 12.0163 15.064 11.7589C15.0128 11.5015 15.039 11.2347 15.1395 10.9922C15.2399 10.7497 15.41 10.5425 15.6282 10.3967C15.8464 10.2509 16.1029 10.1731 16.3654 10.1731C16.7173 10.1731 17.0548 10.3129 17.3037 10.5617C17.5525 10.8106 17.6923 11.1481 17.6923 11.5ZM7.96154 11.5C7.96154 11.7624 7.88372 12.019 7.73792 12.2372C7.59211 12.4554 7.38487 12.6255 7.14241 12.7259C6.89995 12.8263 6.63315 12.8526 6.37575 12.8014C6.11835 12.7502 5.88192 12.6238 5.69634 12.4383C5.51077 12.2527 5.38439 12.0163 5.33319 11.7589C5.28199 11.5015 5.30827 11.2347 5.4087 10.9922C5.50913 10.7497 5.67921 10.5425 5.89742 10.3967C6.11563 10.2509 6.37218 10.1731 6.63462 10.1731C6.98654 10.1731 7.32405 10.3129 7.5729 10.5617C7.82174 10.8106 7.96154 11.1481 7.96154 11.5Z" fill="black"/>
</svg>
