<svg width="1920" height="1025" viewBox="0 0 1920 1025" fill="none" xmlns="http://www.w3.org/2000/svg">
<path d="M234.99 4.26398C211.693 -8.1333 66.6228 9.42951 -3 19.7606V1000.05H75.8278C111.978 1012.44 361.348 1021.54 481.515 1024.54L817.913 1000.05L1232.64 1024.54L1446.03 1000.05C1481.17 1006.71 1568.94 1020.94 1638.83 1024.54C1708.72 1028.14 1856.06 1009.71 1921 1000.05V30.7584C1907.61 27.0925 1876.31 19.7606 1858.24 19.7606C1840.16 19.7606 1680.33 37.7568 1602.68 46.7549C1456.23 54.0866 1156.12 67.4503 1127.2 62.2515C1098.28 57.0526 823.604 31.758 689.881 19.7606L409.716 46.7549C361.181 37.7568 258.286 16.6613 234.99 4.26398Z" fill="#FFFDE6"/>
</svg>
