<svg width="19" height="19" viewBox="0 0 19 19" fill="none" xmlns="http://www.w3.org/2000/svg">
<path d="M18.6511 3.75143C18.5877 3.67637 18.5084 3.61599 18.4188 3.57457C18.3292 3.53314 18.2315 3.51168 18.1325 3.5117H4.50714L4.09412 1.26802C4.03755 0.960069 3.87349 0.681518 3.63054 0.480934C3.38759 0.28035 3.08117 0.170455 2.76469 0.17041H1.24015C1.06094 0.17041 0.889077 0.240816 0.76236 0.366138C0.635642 0.491461 0.564453 0.661434 0.564453 0.838667C0.564453 1.0159 0.635642 1.18587 0.76236 1.3112C0.889077 1.43652 1.06094 1.50692 1.24015 1.50692H2.76046L4.91931 13.2256C4.9829 13.5732 5.13821 13.8979 5.36949 14.1671C5.05027 14.4619 4.81986 14.8385 4.70381 15.255C4.58777 15.6715 4.59063 16.1116 4.71207 16.5266C4.83351 16.9416 5.06879 17.3152 5.39181 17.606C5.71484 17.8968 6.113 18.0934 6.54213 18.1741C6.97126 18.2548 7.4146 18.2163 7.82299 18.063C8.23138 17.9097 8.58885 17.6475 8.85578 17.3056C9.12271 16.9636 9.28866 16.5552 9.33523 16.1257C9.3818 15.6961 9.30716 15.2622 9.11961 14.8721H12.9559C12.8047 15.185 12.7265 15.5276 12.727 15.8745C12.727 16.337 12.8657 16.7892 13.1255 17.1739C13.3854 17.5585 13.7548 17.8583 14.1869 18.0353C14.619 18.2123 15.0945 18.2587 15.5533 18.1684C16.012 18.0782 16.4334 17.8554 16.7642 17.5283C17.0949 17.2012 17.3202 16.7844 17.4114 16.3307C17.5027 15.877 17.4558 15.4068 17.2768 14.9794C17.0978 14.552 16.7947 14.1867 16.4058 13.9297C16.0169 13.6727 15.5597 13.5356 15.0919 13.5356H6.91346C6.75522 13.5355 6.60201 13.4806 6.48053 13.3803C6.35906 13.28 6.27703 13.1407 6.24874 12.9867L5.981 11.5308H15.7786C16.2533 11.5307 16.7129 11.3659 17.0774 11.065C17.4418 10.7641 17.6879 10.3463 17.7727 9.88436L18.7998 4.2994C18.8172 4.20287 18.8129 4.10374 18.7872 4.00904C18.7615 3.91434 18.715 3.82639 18.6511 3.75143ZM7.99711 15.8745C7.99711 16.0727 7.93766 16.2665 7.82629 16.4313C7.71492 16.5962 7.55663 16.7247 7.37143 16.8005C7.18623 16.8764 6.98244 16.8963 6.78583 16.8576C6.58922 16.8189 6.40863 16.7234 6.26688 16.5832C6.12513 16.4431 6.0286 16.2644 5.98949 16.07C5.95039 15.8756 5.97046 15.674 6.04717 15.4909C6.12388 15.3077 6.25379 15.1511 6.42047 15.041C6.58714 14.9309 6.7831 14.8721 6.98356 14.8721C7.25237 14.8721 7.51017 14.9777 7.70025 15.1657C7.89032 15.3536 7.99711 15.6086 7.99711 15.8745ZM16.1055 15.8745C16.1055 16.0727 16.046 16.2665 15.9346 16.4313C15.8233 16.5962 15.665 16.7247 15.4798 16.8005C15.2946 16.8764 15.0908 16.8963 14.8942 16.8576C14.6976 16.8189 14.517 16.7234 14.3752 16.5832C14.2335 16.4431 14.137 16.2644 14.0978 16.07C14.0587 15.8756 14.0788 15.674 14.1555 15.4909C14.2322 15.3077 14.3621 15.1511 14.5288 15.041C14.6955 14.9309 14.8915 14.8721 15.0919 14.8721C15.3607 14.8721 15.6185 14.9777 15.8086 15.1657C15.9987 15.3536 16.1055 15.6086 16.1055 15.8745ZM16.4433 9.64546C16.4149 9.79986 16.3325 9.93947 16.2105 10.0398C16.0885 10.1402 15.9347 10.1948 15.7761 10.1943H5.73521L4.75292 4.84821H17.3226L16.4433 9.64546Z" fill="#565656"/>
</svg>
