<svg width="28" height="15" viewBox="0 0 28 15" fill="none" xmlns="http://www.w3.org/2000/svg">
<path id="Vector" d="M27.6321 2.13484L15.1335 14.6335C15.0174 14.7497 14.8796 14.8419 14.7278 14.9048C14.5761 14.9677 14.4135 15.0001 14.2492 15.0001C14.085 15.0001 13.9223 14.9677 13.7706 14.9048C13.6189 14.8419 13.481 14.7497 13.3649 14.6335L0.86628 2.13484C0.631755 1.90031 0.5 1.58223 0.5 1.25056C0.5 0.918891 0.631755 0.600805 0.86628 0.36628C1.10081 0.131754 1.41889 0 1.75056 0C2.08223 0 2.40031 0.131754 2.63484 0.36628L14.2492 11.9822L25.8636 0.36628C25.9797 0.250155 26.1176 0.158039 26.2693 0.0951927C26.421 0.0323461 26.5836 0 26.7479 0C26.9121 0 27.0747 0.0323461 27.2264 0.0951927C27.3782 0.158039 27.516 0.250155 27.6321 0.36628C27.7483 0.482405 27.8404 0.620266 27.9032 0.771991C27.9661 0.923716 27.9984 1.08633 27.9984 1.25056C27.9984 1.41479 27.9661 1.5774 27.9032 1.72913C27.8404 1.88085 27.7483 2.01871 27.6321 2.13484Z" fill="black"/>
</svg>
