<svg width="30" height="31" viewBox="0 0 30 31" fill="none" xmlns="http://www.w3.org/2000/svg">
<path d="M15 0.485351C12.0333 0.485351 9.13319 1.36509 6.66645 3.01331C4.19971 4.66153 2.27713 7.00421 1.14181 9.7451C0.00649914 12.486 -0.290551 15.502 0.288227 18.4117C0.867005 21.3214 2.29562 23.9942 4.3934 26.0919C6.49119 28.1897 9.16393 29.6183 12.0736 30.1971C14.9834 30.7759 17.9994 30.4789 20.7403 29.3435C23.4811 28.2082 25.8238 26.2856 27.472 23.8189C29.1203 21.3522 30 18.4521 30 15.4853C29.9958 11.5084 28.4141 7.69552 25.602 4.88339C22.7898 2.07125 18.977 0.489551 15 0.485351ZM15 28.1777C12.4897 28.1777 10.0358 27.4333 7.94854 26.0386C5.8613 24.644 4.23449 22.6617 3.27384 20.3425C2.31319 18.0233 2.06184 15.4713 2.55158 13.0092C3.04131 10.5471 4.25014 8.28558 6.02519 6.51053C7.80024 4.73548 10.0618 3.52666 12.5239 3.03692C14.9859 2.54719 17.5379 2.79854 19.8571 3.75919C22.1764 4.71984 24.1586 6.34664 25.5533 8.43388C26.9479 10.5211 27.6923 12.975 27.6923 15.4853C27.6885 18.8504 26.35 22.0765 23.9706 24.4559C21.5912 26.8354 18.365 28.1738 15 28.1777ZM21.5856 12.3613C21.6929 12.4685 21.778 12.5957 21.836 12.7358C21.8941 12.8759 21.924 13.026 21.924 13.1777C21.924 13.3293 21.8941 13.4794 21.836 13.6195C21.778 13.7596 21.6929 13.8868 21.5856 13.994L15.8163 19.7632C15.7092 19.8705 15.5819 19.9556 15.4419 20.0137C15.3018 20.0718 15.1516 20.1016 15 20.1016C14.8484 20.1016 14.6982 20.0718 14.5581 20.0137C14.4181 19.9556 14.2908 19.8705 14.1837 19.7632L8.41443 13.994C8.19792 13.7775 8.07629 13.4838 8.07629 13.1777C8.07629 12.8715 8.19792 12.5778 8.41443 12.3613C8.63094 12.1448 8.92458 12.0232 9.23077 12.0232C9.53696 12.0232 9.83061 12.1448 10.0471 12.3613L15 17.3156L19.9529 12.3613C20.06 12.254 20.1873 12.1689 20.3274 12.1109C20.4675 12.0528 20.6176 12.0229 20.7692 12.0229C20.9209 12.0229 21.071 12.0528 21.2111 12.1109C21.3512 12.1689 21.4784 12.254 21.5856 12.3613Z" fill="#505050"/>
</svg>
