<svg width="30" height="30" viewBox="0 0 30 30" fill="none" xmlns="http://www.w3.org/2000/svg">
<path d="M15 -1.32011e-07C12.0333 -1.05902e-07 9.13319 0.879734 6.66645 2.52796C4.19971 4.17618 2.27713 6.51886 1.14181 9.25975C0.00649914 12.0006 -0.290551 15.0166 0.288227 17.9264C0.867005 20.8361 2.29562 23.5088 4.3934 25.6066C6.49119 27.7044 9.16393 29.133 12.0736 29.7118C14.9834 30.2906 17.9994 29.9935 20.7403 28.8582C23.4811 27.7229 25.8238 25.8003 27.472 23.3335C29.1203 20.8668 30 17.9667 30 15C29.9958 11.023 28.4141 7.21017 25.602 4.39804C22.7898 1.5859 18.977 0.00419957 15 -1.32011e-07ZM15 27.6923C12.4897 27.6923 10.0358 26.9479 7.94854 25.5533C5.8613 24.1586 4.23449 22.1763 3.27384 19.8571C2.31319 17.5379 2.06184 14.9859 2.55158 12.5239C3.04131 10.0618 4.25014 7.80023 6.02519 6.02518C7.80024 4.25013 10.0618 3.04131 12.5239 2.55157C14.9859 2.06184 17.5379 2.31319 19.8571 3.27384C22.1764 4.23449 24.1586 5.86129 25.5533 7.94853C26.9479 10.0358 27.6923 12.4897 27.6923 15C27.6885 18.365 26.35 21.5912 23.9706 23.9706C21.5912 26.35 18.365 27.6885 15 27.6923ZM21.5856 16.4913C21.6928 16.5985 21.7778 16.7258 21.8358 16.8659C21.8939 17.006 21.9237 17.1561 21.9237 17.3077C21.9237 17.4593 21.8939 17.6094 21.8358 17.7495C21.7778 17.8896 21.6928 18.0168 21.5856 18.124C21.4784 18.2312 21.3511 18.3163 21.211 18.3743C21.071 18.4323 20.9208 18.4622 20.7692 18.4622C20.6176 18.4622 20.4675 18.4323 20.3274 18.3743C20.1874 18.3163 20.0601 18.2312 19.9529 18.124L15 13.1697L10.0471 18.124C9.93992 18.2312 9.81265 18.3163 9.67258 18.3743C9.53251 18.4323 9.38238 18.4622 9.23077 18.4622C9.07916 18.4622 8.92904 18.4323 8.78897 18.3743C8.6489 18.3163 8.52163 18.2312 8.41443 18.124C8.30722 18.0168 8.22218 17.8896 8.16417 17.7495C8.10615 17.6094 8.07629 17.4593 8.07629 17.3077C8.07629 17.1561 8.10615 17.006 8.16417 16.8659C8.22218 16.7258 8.30722 16.5985 8.41443 16.4913L14.1837 10.7221C14.2908 10.6148 14.4181 10.5297 14.5581 10.4717C14.6982 10.4136 14.8484 10.3837 15 10.3837C15.1516 10.3837 15.3018 10.4136 15.4419 10.4717C15.5819 10.5297 15.7092 10.6148 15.8163 10.7221L21.5856 16.4913Z" fill="#F17F00"/>
</svg>
