<svg width="25" height="25" viewBox="0 0 25 25" fill="none" xmlns="http://www.w3.org/2000/svg">
<path id="Vector" d="M22.1875 0.391602H2.8125C2.29864 0.391602 1.80583 0.59573 1.44248 0.959082C1.07913 1.32243 0.875 1.81524 0.875 2.3291V9.44578C0.875 20.2982 10.0563 23.8971 11.8945 24.5074C12.287 24.6418 12.713 24.6418 13.1055 24.5074C14.9461 23.8959 24.125 20.297 24.125 9.44457V2.3291C24.125 1.81524 23.9209 1.32243 23.5575 0.959082C23.1942 0.59573 22.7014 0.391602 22.1875 0.391602ZM22.1875 9.4482C22.1875 18.9444 14.1541 22.117 12.5 22.6692C10.8616 22.1243 2.8125 18.9541 2.8125 9.4482V2.3291H22.1875V9.4482ZM11.5312 12.0166V7.17285C11.5312 6.91592 11.6333 6.66952 11.815 6.48784C11.9967 6.30617 12.2431 6.2041 12.5 6.2041C12.7569 6.2041 13.0033 6.30617 13.185 6.48784C13.3667 6.66952 13.4688 6.91592 13.4688 7.17285V12.0166C13.4688 12.2735 13.3667 12.5199 13.185 12.7016C13.0033 12.8833 12.7569 12.9854 12.5 12.9854C12.2431 12.9854 11.9967 12.8833 11.815 12.7016C11.6333 12.5199 11.5312 12.2735 11.5312 12.0166ZM11.0469 16.376C11.0469 16.0886 11.1321 15.8076 11.2918 15.5687C11.4514 15.3297 11.6784 15.1434 11.9439 15.0335C12.2094 14.9235 12.5016 14.8947 12.7835 14.9508C13.0654 15.0068 13.3243 15.1452 13.5275 15.3485C13.7307 15.5517 13.8691 15.8106 13.9252 16.0925C13.9813 16.3744 13.9525 16.6665 13.8425 16.9321C13.7325 17.1976 13.5463 17.4245 13.3073 17.5842C13.0683 17.7439 12.7874 17.8291 12.5 17.8291C12.1146 17.8291 11.745 17.676 11.4725 17.4035C11.2 17.131 11.0469 16.7614 11.0469 16.376Z" fill="black"/>
</svg>
