<svg width="33" height="25" viewBox="0 0 33 25" fill="none" xmlns="http://www.w3.org/2000/svg">
<path id="Vector" d="M32.9202 9.21103L30.9952 4.2129C30.8319 3.79002 30.5501 3.42781 30.1863 3.17319C29.8225 2.91858 29.3935 2.78329 28.9547 2.78486H24.2V1.64243C24.2 1.33944 24.0841 1.04886 23.8778 0.83461C23.6715 0.620363 23.3917 0.5 23.1 0.5H2.2C1.61652 0.5 1.05695 0.740726 0.644365 1.16922C0.231785 1.59771 0 2.17888 0 2.78486V18.7789C0 19.3849 0.231785 19.966 0.644365 20.3945C1.05695 20.823 1.61652 21.0637 2.2 21.0637H4.5375C4.77983 22.0467 5.33027 22.918 6.10204 23.5401C6.87381 24.1623 7.82301 24.5 8.8 24.5C9.77699 24.5 10.7262 24.1623 11.498 23.5401C12.2697 22.918 12.8202 22.0467 13.0625 21.0637H19.9375C20.1798 22.0467 20.7303 22.918 21.502 23.5401C22.2738 24.1623 23.223 24.5 24.2 24.5C25.177 24.5 26.1262 24.1623 26.898 23.5401C27.6697 22.918 28.2202 22.0467 28.4625 21.0637H30.8C31.3835 21.0637 31.9431 20.823 32.3556 20.3945C32.7682 19.966 33 19.3849 33 18.7789V9.63944C33.0004 9.49263 32.9733 9.34713 32.9202 9.21103ZM24.2 5.06972H28.9547L30.2747 8.49701H24.2V5.06972ZM2.2 2.78486H22V11.9243H2.2V2.78486ZM8.8 22.2062C8.36488 22.2062 7.93953 22.0722 7.57774 21.8211C7.21596 21.57 6.93398 21.2132 6.76746 20.7957C6.60095 20.3782 6.55738 19.9188 6.64227 19.4756C6.72716 19.0323 6.93669 18.6252 7.24436 18.3057C7.55204 17.9861 7.94404 17.7685 8.3708 17.6804C8.79756 17.5922 9.2399 17.6374 9.6419 17.8104C10.0439 17.9833 10.3875 18.2762 10.6292 18.6519C10.871 19.0277 11 19.4694 11 19.9213C11 20.5273 10.7682 21.1085 10.3556 21.537C9.94305 21.9655 9.38348 22.2062 8.8 22.2062ZM19.9375 18.7789H13.0625C12.8202 17.7959 12.2697 16.9247 11.498 16.3025C10.7262 15.6803 9.77699 15.3426 8.8 15.3426C7.82301 15.3426 6.87381 15.6803 6.10204 16.3025C5.33027 16.9247 4.77983 17.7959 4.5375 18.7789H2.2V14.2092H22V15.9671C21.4942 16.2707 21.0514 16.6756 20.6974 17.1583C20.3433 17.641 20.0851 18.1918 19.9375 18.7789ZM24.2 22.2062C23.7649 22.2062 23.3395 22.0722 22.9777 21.8211C22.616 21.57 22.334 21.2132 22.1675 20.7957C22.0009 20.3782 21.9574 19.9188 22.0423 19.4756C22.1272 19.0323 22.3367 18.6252 22.6444 18.3057C22.952 17.9861 23.344 17.7685 23.7708 17.6804C24.1976 17.5922 24.6399 17.6374 25.0419 17.8104C25.4439 17.9833 25.7875 18.2762 26.0292 18.6519C26.271 19.0277 26.4 19.4694 26.4 19.9213C26.4 20.5273 26.1682 21.1085 25.7556 21.537C25.3431 21.9655 24.7835 22.2062 24.2 22.2062ZM30.8 18.7789H28.4625C28.2173 17.7983 27.6658 16.9299 26.8944 16.3097C26.1231 15.6895 25.1755 15.3526 24.2 15.3516V10.7819H30.8V18.7789Z" fill="black"/>
</svg>
