<svg width="492" height="583" viewBox="0 0 492 583" fill="none" xmlns="http://www.w3.org/2000/svg">
<path d="M401.456 103.327C416.679 112.73 442.505 127.006 461.598 141.213C494.533 158.262 489.759 171.71 489.759 181.941C489.759 202.153 485.7 247.824 485.7 259.55C485.7 306.035 482.622 373.541 482.036 407.38C481.45 441.219 482.036 475.243 482.036 503.561C482.036 529.606 482.036 573.997 451.8 578.252C407.852 584.436 380.176 578.252 309.097 578.252C238.017 578.252 209.337 573.042 143.945 566.886C78.552 560.729 14.9033 569.622 7.43164 553.626C-1.63739 534.209 3.3895 424.661 3.3895 403.074V201.206C3.3895 141.113 3.97552 120.693 3.3895 90.3545C2.80347 60.0161 16.8684 58.8492 23.3149 54.1817C29.7613 49.5143 91.2954 32.5948 124.7 24.4268C158.104 16.2588 145.342 18.8988 178.16 8.98048C210.979 -0.937858 230.243 1.68681 237.936 4.89646C261.601 14.7686 278.527 28.6488 291.195 37.9739C305.991 48.8661 329.38 59.7583 353.841 76.3521C363.785 83.0981 380.454 90.3545 401.456 103.327Z" fill="white" stroke="#FF9B25" stroke-width="4"/>
</svg>
