<svg width="492" height="583" viewBox="0 0 492 583" fill="none" xmlns="http://www.w3.org/2000/svg">
<path d="M90.5445 103.327C75.3213 112.73 49.4951 127.006 30.4024 141.213C-2.53252 158.262 2.24104 171.71 2.24114 181.941C2.24133 202.153 6.30021 247.824 6.30021 259.55C6.30021 306.035 9.3776 373.541 9.96364 407.38C10.5497 441.219 9.96364 475.243 9.96364 503.561C9.96364 529.606 9.96364 573.997 40.1996 578.252C84.1485 584.436 111.824 578.252 182.903 578.252C253.983 578.252 282.663 573.042 348.055 566.886C413.448 560.729 477.097 569.622 484.568 553.626C493.637 534.209 488.611 424.661 488.611 403.074V201.206C488.611 141.113 488.024 120.693 488.611 90.3545C489.197 60.0161 475.132 58.8492 468.685 54.1817C462.239 49.5143 400.705 32.5949 367.3 24.4268C333.896 16.2588 346.658 18.8988 313.84 8.98048C281.021 -0.937857 261.757 1.68681 254.064 4.89646C230.399 14.7686 213.473 28.6488 200.805 37.9739C186.009 48.8661 162.62 59.7583 138.159 76.3521C128.215 83.0981 111.546 90.3545 90.5445 103.327Z" fill="white" stroke="#FF9B25" stroke-width="4"/>
</svg>
